{"title":"18+.The.Killing.of.a.Sacred.Deer.2017.HDRip.XviD.AC3.LLG","magnet":"magnet:?xt=urn:btih:e15c8e024cf4c2492aa627e9e2c79940cc4e0759&dn=18%2B.The.Killing.of.a.Sacred.Deer.2017.HDRip.XviD.AC3.LLG&tr=udp%3A%2F%2Ftracker.leechers-paradise.org%3A6969&tr=udp%3A%2F%2Fzer0day.ch%3A1337&tr=udp%3A%2F%2Fopen.demonii.com%3A1337&tr=udp%3A%2F%2Ftracker.coppersurfer.tk%3A6969&tr=udp%3A%2F%2Fexodus.desync.com%3A6969","uploader":"LifeLongg","categoryP":"video","categoryS":"movies","size":"1032176518","seeders":"1","leechers":"29","description":"******************************Screenshots:********************\r\n <a href=\"\nhttp://picserver4u.com/0951.html\" rel=\"nofollow\" target=\"_NEW\">\nhttp://picserver4u.com/0951.html</a>\r\n <a href=\"\nhttp://picserver4u.com/0952.html\" rel=\"nofollow\" target=\"_NEW\">\nhttp://picserver4u.com/0952.html</a>\r\n <a href=\"\nhttp://picserver4u.com/0953.html\" rel=\"nofollow\" target=\"_NEW\">\nhttp://picserver4u.com/0953.html</a>\r\n <a href=\"\nhttp://picserver4u.com/0954.html\" rel=\"nofollow\" target=\"_NEW\">\nhttp://picserver4u.com/0954.html</a>\r\n <a href=\"\nhttp://picserver4u.com/0955.html\" rel=\"nofollow\" target=\"_NEW\">\nhttp://picserver4u.com/0955.html</a>\r\n\r\n**************************************************************\r\n\r\nGeneral\r\nComplete name                            : 18+.The.Killing.of.a.Sacred.Deer.2017.HDRip.XviD.AC3.LLG\r\nFormat                                   : MPEG-4\r\nFormat profile                           : Base Media\r\nCodec ID                                 : isom (isom/iso2/avc1/mp41)\r\nFile size                                : 978 MiB\r\nDuration                                 : 2 h 1 min\r\nOverall bit rate                         : 1 130 kb/s\r\nWriting application                      : Lavf57.56.101\r\n\r\nVideo\r\nID                                       : 1\r\nFormat                                   : AVC\r\nFormat/Info                              : Advanced Video Codec\r\nFormat profile                           : <a href=\"/cdn-cgi/l/email-protection\" class=\"__cf_email__\" data-cfemail=\"8cc4e5ebe4ccc0bf\">[email&#xA0;protected]</a>\r\nFormat settings                          : CABAC / 4 Ref Frames\r\nFormat settings, CABAC                   : Yes\r\nFormat settings, RefFrames               : 4 frames\r\nCodec ID                                 : avc1\r\nCodec ID/Info                            : Advanced Video Coding\r\nDuration                                 : 2 h 1 min\r\nBit rate                                 : 900 kb/s\r\nWidth                                    : 720 pixels\r\nHeight                                   : 384 pixels\r\nDisplay aspect ratio                     : 1.85:1\r\nFrame rate mode                          : Constant\r\nFrame rate                               : 23.976 (23976/1000) FPS\r\nColor space                              : YUV\r\nChroma subsampling                       : 4:2:0\r\nBit depth                                : 8 bits\r\nScan type                                : Progressive\r\nBits/(Pixel*Frame)                       : 0.136\r\nStream size                              : 752 MiB (77%)\r\n\r\n\r\nAudio\r\nID                                       : 2\r\nFormat                                   : AC-3\r\nFormat/Info                              : Audio Coding 3\r\nCodec ID                                 : ac-3\r\nDuration                                 : 2 h 1 min\r\nBit rate mode                            : Constant\r\nBit rate                                 : 256 kb/s\r\nChannel(s)                               : 6 channels\r\nChannel positions                        : Front: L C R, Side: L R, LFE\r\nSampling rate                            : 48.0 kHz\r\nFrame rate                               : 31.250 FPS (1536 SPF)\r\nBit depth                                : 16 bits\r\nCompression mode                         : Lossy\r\nStream size                              : 222 MiB (23%)\r\nTitle                                    : T2_Audio - English\r\nService kind                             : Complete Main\r\nDefault                                  : Yes\r\nAlternate group                          : 1","last_updated":"2017-12-21T12:02:32.179Z","parsed":{"xt":"urn:btih:e15c8e024cf4c2492aa627e9e2c79940cc4e0759","dn":"18 .The.Killing.of.a.Sacred.Deer.2017.HDRip.XviD.AC3.LLG","tr":["udp://exodus.desync.com:6969","udp://open.demonii.com:1337","udp://tracker.coppersurfer.tk:6969","udp://tracker.leechers-paradise.org:6969","udp://zer0day.ch:1337"],"infoHash":"e15c8e024cf4c2492aa627e9e2c79940cc4e0759","infoHashBuffer":{"type":"Buffer","data":[225,92,142,2,76,244,194,73,42,166,39,233,226,199,153,64,204,78,7,89]},"name":"18 .The.Killing.of.a.Sacred.Deer.2017.HDRip.XviD.AC3.LLG","announce":["udp://exodus.desync.com:6969","udp://open.demonii.com:1337","udp://tracker.coppersurfer.tk:6969","udp://tracker.leechers-paradise.org:6969","udp://zer0day.ch:1337"],"urlList":[]}}